/* XPM */
static char *_7461c1fd54e4ddd9fec2f7feab0b346iz58snO5mBRJXGlO[] = {
/* columns rows colors chars-per-pixel */
"32 32 77 1 ",
"  c #B97A55",
". c #BE7F59",
"X c #BD835B",
"o c #C3855D",
"O c #C48B61",
"+ c #C88A61",
"@ c #C69164",
"# c #C99064",
"$ c #CE9166",
"% c #CA9567",
"& c #CA9568",
"* c #CD9468",
"= c #CE9A6B",
"- c #CF9F6D",
"; c #D39B6C",
": c #D6996D",
"> c #D29E6E",
", c #CEA16F",
"< c #D0A371",
"1 c #D7A373",
"2 c #D3A773",
"3 c #D6A673",
"4 c #D9A272",
"5 c #DDA173",
"6 c #D8A472",
"7 c #D7AA76",
"8 c #DBAB77",
"9 c #DCA976",
"0 c #DAAC77",
"q c #D7AD78",
"w c #DBAA78",
"e c #DDAA78",
"r c #DAAD78",
"t c #DAB17A",
"y c #DFB17B",
"u c #DDB27C",
"i c #DBB47C",
"p c #DDB77E",
"a c #DEB87E",
"s c #E0A978",
"d c #E5AA7A",
"f c #E0B07B",
"g c #E2B07C",
"h c #E7B17E",
"j c #E1B67F",
"k c #E5B67F",
"l c #E0B87F",
"z c #DFBA81",
"x c #E3B680",
"c c #E5B680",
"v c #E9B781",
"b c #E0B980",
"n c #E6BB83",
"m c #E3BD83",
"M c #E4BC82",
"N c #E2BE84",
"B c #EABC84",
"V c #E3C083",
"C c #E2C185",
"Z c #E6C185",
"A c #E4C486",
"S c #EBC087",
"D c #ECC187",
"F c #E5C789",
"G c #EAC589",
"H c #ECC58A",
"J c #E6CA8A",
"K c #E8C88B",
"L c #EEC88B",
"P c #EDC88C",
"I c #EACD8C",
"U c #ECCF8E",
"Y c #EAD08E",
"T c #EDD18F",
"R c #EFD191",
"E c #EED592",
"W c #F0D191",
/* pixels */
"dddh4s9555dhBvBjk9k55ddddv4g4ss5",
"d5$9;>;4;dhvgy9;r;y;hvBk1yy31y$d",
"sy93jk>M;gs6rj>jGpn1gcu3j>4n*k;s",
"g9r>4r&7>j8j0>p9rp<p9wxmr>jbq7>9",
"gjy97ZNqy7gxu89tZ3-y7cny8Z=jb-jo",
"vy>mMpAZK3Mg33yZt-ZyunSml1Ma-8y*",
"gnjyNFtjF1MgM9y3-CMm8encZjNz7j>4",
"scyLUKjmFmPcg8ByKZmm6HKUyDM8G-1:",
"sMhjZnJlbGBGshjMn<y>SBSGHG4K,r*5",
"hsgDbKlRKBBSggSw>8HnvHUnkLy3;45d",
"vvsgMMjUHvSBScjnjyHBSPHBGnw4:555",
"hhv9n:cncPSDvSysngGsBHDKyy1+$:$d",
"5$4;+8y1WSHcyj1rZZyDDvUMb34s*5$5",
"::+4s>cjcgw>y>MgrLyScZjyu393.o+:",
":+*y32tr9y:3r39pp<rZjxn9;j#y*O1=",
":;9=j>Oy=ne1yM7Zp%j<Bnn9rmM7%1;*",
"4*1j7%ymbjc8r;9<%my39f9S9yb-t:*4",
"s413%t9rMfZs48>Omyu49nkgjPy8jO;4",
"s$vj89qm0Bng1h9yy&14hvknUZyn@;*5",
"sh49k<VpfSgsv49gX3oshBdcnBK3655d",
"5shy$ySjKBv55d9*8g1vhdvDgUjng:dd",
"dss5cncTnSghkgkbnyS5gSvHPH9M:555",
"ddgyjmFmylhvgy98u8j8DHUc1j;3;41v",
"dgMnZGSbMygfmFrFRZKmnSb>jbMn>g;s",
"gcjZbyZzCbyZAtFjuFtFylnZ>rZ3qo*4",
"gcZZjFKFFmmnFZZmUFCFtKM8jZ<yrO;#",
"gvMbFjFIZKpnmmmRmzUmNfnbbj97%;;+",
"scSMjFICZClgGjlpzRZljj4cy1b-=:+:",
"hgcmSKFjFbncsyHnEKim8hcg;Uyy4.$:",
"hgMdjMcYmmsggB9MS@Z3ch5gB9:s $+5",
"hhscvyIMSgdhgsBy;GBnhhhssd:$:d5d",
"dhhscMcdhdddhs5gkvdhdddd5555dddd"
};
