/* XPM */
static char *result[] = {
/* columns rows colors chars-per-pixel */
"32 32 77 1 ",
"  c #663724",
". c #653A25",
"X c #6C3B26",
"o c #673928",
"O c #6C3D29",
"+ c #723F2A",
"@ c #6F4027",
"# c #6E412A",
"$ c #73422C",
"% c #7B462D",
"& c #7F4A2F",
"* c #764630",
"= c #7A4730",
"- c #7D4A31",
"; c #83472F",
": c #864C31",
"> c #8A4D32",
", c #845135",
"< c #8B5235",
"1 c #8F563B",
"2 c #925437",
"3 c #945539",
"4 c #99573A",
"5 c #925838",
"6 c #9C5A3C",
"7 c #9F5E40",
"8 c #A15F40",
"9 c #A46343",
"0 c #A86645",
"q c #A86845",
"w c #AC6B4A",
"e c #B06F4C",
"r c #B2714E",
"t c #B47451",
"y c #BA7A55",
"u c #B37F59",
"i c #BE7F59",
"p c #B4805A",
"a c #BD835C",
"s c #BC885E",
"d c #C2845C",
"f c #C08B5F",
"g c #C48C62",
"h c #C88A61",
"j c #C69164",
"k c #CD9266",
"l c #C69368",
"z c #CD9568",
"x c #CF9B6B",
"c c #D39B6D",
"v c #D79E71",
"b c #CEA16F",
"n c #D6A472",
"m c #DBA173",
"M c #D7AA76",
"N c #DBAA76",
"B c #D7AE78",
"V c #DAAD78",
"C c #DEB27B",
"Z c #DEB87E",
"A c #E1A777",
"S c #E4AA79",
"D c #E3B37E",
"F c #E0B97F",
"G c #DFBA81",
"H c #E5B680",
"J c #E9B781",
"K c #E4BC82",
"L c #EABC84",
"P c #E5C185",
"I c #EAC086",
"U c #E6C688",
"Y c #E8C588",
"T c #E6CA8A",
"R c #EACB8C",
"E c #EAD08E",
"W c #EDD491",
/* pixels */
"SSSDmSNcmxSSLJLHHNDmASSSSJmDmNAm",
"SmkNcccmcSHJSDncBcDcDJLDmDCnnCkS",
"SSNMFDcKxSNnBHcGYCKmDDCnFcnKzDcS",
"DNBcmBzBvHNHBvZNBZ>CNVFKNcHGBMcN",
"CHCNNPKBCMSHCNNV>SSS>HLCBKxFKbFd",
"JDcKKZUPRnKHmniSS79wS7IKFmKZxBCk",
"DKFVKUBFUnKDaSS89we08S8DIFPZMZcn",
"AHDRETKGYKwSS9weeeeqewSSCIKBYcmc",
"NLSHKKTFwSS9wteeyt0tSS+wSYmYbBzm",
"DSDIKRKSS60wettiyeyS+tt96SDncmmS",
"JJSVK>S498weewiiSSS++yq996AmcmmA",
"SJLNLS668wereyiSS+dwyw9964c>kckS",
"mknch>vS6eettiS+iteit9964suSkmkm",
"cvhmS><nS90eS+ritree996zp%:nidhc",
"chkSn>>:aSS+60yy0e988vlz%$$Vkhmc",
"ccAzH:=::s+90we9069zn65%$O$Nzvck",
"mznFN>+$,:s409773vc:<<:$X@$cCckm",
"Svnnz>O:--;x694lg<;&:<%O@$$BZgcn",
"NkJFB>$$$#::zcu:%%+$#$##OO$Kjckm",
"SSmND>%$O$+:::%%OXX XO##O#:nmmmS",
"mSDDhl-$#OO$#:-# .. .. O#$<KDcSS",
"SSAmHK;%$#O o: %+O..oO$$-,<LcvmA",
"SSSZZKU:-#%.o*#.#-O$O$:1>2zncvvJ",
"SSKKYULK,>O.o4#o$&-#%,74HGKJvDcA",
"DKFPFVPKP2..O=####><126PxCPnBdzm",
"SHPPFYRUUK>>o>:O*O$22PKNZPnCBgcj",
"DJKFUFURPRG>>>::>>6KKCLHGFNMkcch",
"SDIKZTRPPKGC6::::EPZHKvJCnHxccfc",
"DSJKLRYFUKKJS::KWUCKSJJScRSSmdkc",
"DDLSFKHRKKNSSLNKYlPnJSmDLNcAyhhv",
"DDSDDDRKLJSSDNLDcYKKDDDASSckcSAS",
"SDDAKJKSJSSSHSmSHJSJSSSSvAmASSSS"
};
