/* XPM */
static char *result[] = {
/* columns rows colors chars-per-pixel */
"32 32 69 1 ",
"  c #2F1C13",
". c #321A14",
"X c #362216",
"o c #3B2217",
"O c #3D2319",
"+ c #40241A",
"@ c #47291C",
"# c #4F2D1E",
"$ c #573221",
"% c #5E3724",
"& c #643927",
"* c #663B28",
"= c #6C3E2A",
"- c #6E412B",
"; c #72422D",
": c #794730",
"> c #854D33",
", c #8F5336",
"< c #965639",
"1 c #9C5B3C",
"2 c #A05E3F",
"3 c #9E5F40",
"4 c #A25F40",
"5 c #9F6342",
"6 c #A56443",
"7 c #A96645",
"8 c #A66846",
"9 c #AA6947",
"0 c #AC6C49",
"q c #B16F4C",
"w c #AE724C",
"e c #B2744E",
"r c #B47650",
"t c #B67851",
"y c #B97B53",
"u c #C3855D",
"i c #C88A61",
"p c #C69164",
"a c #CD9166",
"s c #CD9468",
"d c #CF9C6C",
"f c #D39B6D",
"g c #D69E71",
"h c #CEA16F",
"j c #D6A472",
"k c #DBA273",
"l c #D7AA76",
"z c #DCAA76",
"x c #D7AE78",
"c c #DAAD78",
"v c #DEB27B",
"b c #DEB87E",
"n c #E2A778",
"m c #E4AA7A",
"M c #E4B37E",
"N c #E0B97F",
"B c #DEB980",
"V c #E5B680",
"C c #E9B781",
"Z c #E4BC82",
"A c #EABC84",
"S c #E5C185",
"D c #EAC087",
"F c #E6C688",
"G c #E9C588",
"H c #E6CA8A",
"J c #EACB8C",
"K c #EAD08E",
"L c #EDD491",
/* pixels */
"mmmMkmzgksmMACCMVzMngmmmmCkMjnnk",
"mkazfffkfmMCMMzfcfvfMAACkMvljcam",
"mczlNMfZfMnjzNfNFvZkMMvjNfjZsMfn",
"MzcfkcslfMcNcfblcvjvlcVZzfNVxcfz",
"MNczlSZxvcMNvczc1mm1lMZMzSdNNhNu",
"CMfZZbFSJjZmjj1mm1&1111ZNjZbhcva",
"mZNvZFvbFjAM1mm111&=1z1MSNSblMfj",
"mZMJKHNBGN1mm<<%%&#%%=gmvDNzGhkf",
"zAmZSAHN1mn<,%%###&#%%=1mGjHjlak",
"MnmDMJNmz<>&&#++++oo+#%=1mMjfjnm",
"CCmvZmm<>%#%$+O..++oO@#&%1mkfkgk",
"VVCzCm1*%%#+......+..o.+%=m;afam",
"kakfi2m&%#+...... o...@$=nmnanak",
"ffign22g$+O..+.Xo++.+.+fn22n=iif",
"fiam4721fOO.OOOo....+gf22222muka",
"ffmqqe776d.+... @oomm22222277mfa",
"kmqq9qq779joo ..okm63664466122mk",
"nm9erqqeee7mooomm116599740q647mk",
"m77tyee9ete6mmn1111651eq7800266m",
"nm07qqq0193j:1=g113998r070eq6227",
"knntt09eyr6j::;m<416899067067766",
"mnnm0q9656j-=1==j689w989ew997221",
"mmMvm96965f*=:;=-k478899779941mm",
"mMNNFm113f;&=1==;m8669779681mmfm",
"MMNSNMm11n*=-:==;;k6922667mmxusj",
"MMSDNGGmmZ;;=:;=:-;m2242mmjvcufa",
"MMDNSNFJnHb;-1=;;;;m22mmNbzlsffu",
"mNDNNFKSSSMM11;;;KANmnkMMjNdfguf",
"MMMNDJGNJNANn1;ALJbNmMMMfJMmjuif",
"MMDMMNNKNDnMMAnNDpFjMMnmMnfnyaun",
"MMmMMMJNDmmMMnMMfJAZMMMnmmfafmkm",
"mmMmMDMmMmmmMznMMMmMmmmmnkknmmmm"
};
