/* XPM */
static char *result[] = {
/* columns rows colors chars-per-pixel */
"32 32 84 1 ",
"  c black",
". c gray4",
"X c #3F3F3F",
"o c #454545",
"O c #4B4641",
"+ c #4E4946",
"@ c #504A46",
"# c #515151",
"$ c #5C5C5C",
"% c #465D77",
"& c #4A5E79",
"* c #4D637C",
"= c #656565",
"- c #6D6D6D",
"; c #737373",
": c #7C7C7C",
"> c #9F7756",
", c #AC7D5D",
"< c #B97A55",
"1 c #AE815D",
"2 c #AF8C68",
"3 c #B78560",
"4 c #B88662",
"5 c #BD8B65",
"6 c #B58B6B",
"7 c #BF916C",
"8 c #C3855D",
"9 c #C28C65",
"0 c #C88A61",
"q c #C69164",
"w c #CD9166",
"e c #C5926B",
"r c #CC946A",
"t c #CE9D6D",
"y c #D09468",
"u c #D39B6D",
"i c #CC9870",
"p c #D29C71",
"a c #D6A472",
"s c #DBA173",
"d c #D7AA76",
"f c #DCAA76",
"g c #D7AE78",
"h c #DAAD78",
"j c #DEB27C",
"k c #DEB87E",
"l c #E3AA79",
"z c #E4B37E",
"x c #E0B87F",
"c c #4C6582",
"v c #526784",
"b c #546A85",
"n c #596B85",
"m c #546C8C",
"M c #5B728F",
"N c #577090",
"B c #5E7591",
"V c #617A96",
"C c #6888B2",
"Z c #6588B8",
"A c #698CBB",
"S c #6E91C5",
"D c #729ACD",
"F c #769ED3",
"G c #848484",
"H c #8C8C8C",
"J c #939393",
"K c #9C9C9C",
"L c #A4A4A4",
"P c #ABABAB",
"I c #B3B3B3",
"U c #DFB881",
"Y c #E5B680",
"T c #E9B781",
"R c #E4BC82",
"E c #EABC84",
"W c #E5C185",
"Q c #EAC087",
"! c #E6C689",
"~ c #E9C589",
"^ c #E6CA8A",
"/ c #EBCA8C",
"( c #EAD08E",
") c #EFD191",
/* pixels */
"lllzslfssslzETEYYfzppllllEszaflp",
"lswfuuusplTTzlhuhuzuYTETpzjaazyl",
"llfdxxuRulfahxoooojalRjdzusRyzul",
"zfhpshrdpYfYhoOHHooofhYRlaxkgduf",
"zxjfdWWdUdlYooGLKKKooYEjaWtkxtx8",
"zjuRxxWW^aUooK;ooHJLooooktRktfjy",
"zTxjW!jx!aUoLLo+==$JJPooookkfxpa",
"lxj//^kR!R!oH$o#=-GHLooooooo~tau",
"lRzzWR^xRWEooKoJ-=o:JoK$K=ooojrs",
"zlzQR/x)~RUjoPLGKoo:Ko;-K;-Goofl",
"TTllRRY/~TXoooPLKoK:ooG-JKKPIoos",
"zzTfTuYTdXX+eXooIJHKoG;;;C>XooOl",
"lwsu8fjaXO@emccoooHIooHLKPoooo+a",
"uu8slaxX+eecNnmmmooIooHPJoooPoou",
"y0uzaoOO95pm&VbFAZ&Xoooooo;HPoou",
"uylroO339ivcv vc*SmmoooooLK;Poor",
"awaooq3193bb .m&VCVMnroooKJJLoos",
"laoooX9ee,mBvv%NDmmm8XooLKKKoots",
"l0ooPXOO5emmmvmmmme6XXLPPGKoOuyf",
"lzooIPPXore4>BBNmeoXXCHL:=ootssl",
"slooIJHPoor52NN7ioXJJBKKoooRzull",
"llooJKIIJXoX776oooKKJ2Looo2Rupsl",
"llOoII>JP:;ooooXLP;LKKoooRusupuT",
"lzooIVIIVI-HXooIIHJLooopxxEEuzul",
"YYxoooIIJIJIOI2IJIIoooxWagWag8wa",
"lTWWOo@VIIJVOJIIIoooo~ElxEpzhquq",
"lTRU!xOOoJJIOIIIooooWzzxxxfdyuu8",
"lRQRx~/Woo+IOIIoooWxxxlzjaxtuu8u",
"zzzxQ/~x~Oooooooo~jWlzzlu/lla80u",
"zzQzzxx(REfoooooQqWazzlzElul<y8s",
"zzlzzz/xEzlzzlTzu~RRzzzlllyyulll",
"llzlzQzlzlllzllzzTlzllllssslllll"
};
