/* XPM */
static char *result[] = {
/* columns rows colors chars-per-pixel */
"32 32 190 2 ",
"   c black",
".  c #B97A55",
"X  c #BE7F59",
"o  c #FFF200",
"O  c #BD835B",
"+  c #C3855D",
"@  c #C48B61",
"#  c #C88A61",
"$  c #C69164",
"%  c #C99064",
"&  c #CE9166",
"*  c #CA9567",
"=  c #CA9568",
"-  c #CD9468",
";  c #CE9568",
":  c #CE9A6B",
">  c #CF9F6D",
",  c #CF9E6E",
"<  c #D39B6C",
"1  c #D39B6D",
"2  c #D5996C",
"3  c #D29D6E",
"4  c #D29E6E",
"5  c #D39E6E",
"6  c #CEA16F",
"7  c #D1A370",
"8  c #D0A371",
"9  c #D3A370",
"0  c #D7A372",
"q  c #D7A373",
"w  c #D3A773",
"e  c #D7A472",
"r  c #D6A573",
"t  c #D6A673",
"y  c #D7A673",
"u  c #D7A773",
"i  c #D9A272",
"p  c #DAA273",
"a  c #DDA173",
"s  c #D8A472",
"d  c #D7AA75",
"f  c #D7AA76",
"g  c #DAAB76",
"h  c #DBAB76",
"j  c #DBAB77",
"k  c #DCA976",
"l  c #DCAA77",
"z  c #DAAC77",
"x  c #DBAC77",
"c  c #D7AD78",
"v  c #D7AE78",
"b  c #DBAA78",
"n  c #DAAD78",
"m  c #DBB07A",
"M  c #DAB17B",
"N  c #DDB17B",
"B  c #DFB07B",
"V  c #DEB17B",
"C  c #DFB17B",
"Z  c #DDB27B",
"A  c #DEB27B",
"S  c #DDB27C",
"D  c #DDB37C",
"F  c #DBB47C",
"G  c #DDB47C",
"H  c #DDB47D",
"J  c #DCB57D",
"K  c #DDB77E",
"L  c #DDB77F",
"P  c #DEB87E",
"I  c #E0A978",
"U  c #E5AA7A",
"Y  c #E0B07B",
"T  c #E0B07C",
"R  c #E0B17C",
"E  c #E2B07C",
"W  c #E3B07C",
"Q  c #E7B17E",
"!  c #E0B77E",
"~  c #E1B67F",
"^  c #E0B77F",
"/  c #E2B67E",
"(  c #E2B67F",
")  c #E3B67F",
"_  c #E2B77F",
"`  c #E3B77F",
"'  c #E5B67F",
"]  c #E0B87F",
"[  c #E1B87F",
"{  c #E0B97F",
"}  c #E0BA7F",
"|  c #DEB980",
" . c #DFBA81",
".. c #E3B680",
"X. c #E4B680",
"o. c #E5B680",
"O. c #E9B781",
"+. c #E9B782",
"@. c #E0B880",
"#. c #E1B880",
"$. c #E0B980",
"%. c #E0BA80",
"&. c #E1BA80",
"*. c #E3BB83",
"=. c #E4BB82",
"-. c #E5BB82",
";. c #E4BB83",
":. c #E5BB83",
">. c #E6BB83",
",. c #E7BB83",
"<. c #E0BC81",
"1. c #E2BD81",
"2. c #E3BD81",
"3. c #E0BC82",
"4. c #E2BC82",
"5. c #E3BC82",
"6. c #E3BD82",
"7. c #E3BC83",
"8. c #E3BD83",
"9. c #E0BE83",
"0. c #E3BE83",
"q. c #E2BF83",
"w. c #E4BC81",
"e. c #E4BC82",
"r. c #E5BC82",
"t. c #E4BC83",
"y. c #E5BC83",
"u. c #E7BC83",
"i. c #E4BE83",
"p. c #E2BE84",
"a. c #E3BF84",
"s. c #EABC84",
"d. c #EBBC84",
"f. c #FFA3B1",
"g. c #E3C083",
"h. c #E3C085",
"j. c #E2C185",
"k. c #E3C285",
"l. c #E3C386",
"z. c #E5C185",
"x. c #E6C085",
"c. c #E6C185",
"v. c #E5C285",
"b. c #E6C086",
"n. c #E6C186",
"m. c #E5C286",
"M. c #E5C386",
"N. c #E4C486",
"B. c #E8C086",
"V. c #E9C086",
"C. c #EBC087",
"Z. c #EBC187",
"A. c #ECC187",
"S. c #E5C588",
"D. c #E6C588",
"F. c #E7C588",
"G. c #E6C688",
"H. c #E6C788",
"J. c #E7C788",
"K. c #E6C689",
"L. c #E6C789",
"P. c #E7C789",
"I. c #E8C588",
"U. c #E9C588",
"Y. c #EAC589",
"T. c #E8C688",
"R. c #EDC589",
"E. c #ECC48A",
"W. c #ECC58A",
"Q. c #E9C98A",
"!. c #E9C88B",
"~. c #E8C98B",
"^. c #EAC98A",
"/. c #EBC88B",
"(. c #EAC98B",
"). c #EDC88B",
"_. c #EEC88B",
"`. c #EEC98C",
"'. c #EACD8C",
"]. c #EACE8D",
"[. c #EECC8E",
"{. c #EFCC8E",
"}. c #ECCE8E",
"|. c #ECCF8E",
" X c #EDCF8E",
".X c #EAD08E",
"XX c #EDD190",
"oX c #EED190",
"OX c #ECD290",
"+X c #EED592",
/* pixels */
"U U U Q i I k a a a U Q s.O.s.~ ' k ' a a U U U U O.i E i I I a ",
"U a & k < 4 < i < U Q O.E N k < n < C < Q O.d.            C & U ",
"I C k t ~ ' 4 u.< W I s n ~ 4 ~ Y.H >.0 E                 ' < I ",
"E k n 4 i n = d 3 ( j ( z 4 H k n J 9 H l         4 ~     f 4 k ",
"E ~ N k f c.p.c V f W ..S g k M c.t > N f       h b.: ~ %.> ^ + ",
"O.C 4 8.  K N.z.~.t y.W e   N c.M , z.V D       } 0 t.P > g N - ",
"E >._ V       _ G.q y.      V t , k.w.0.j       c.^ a.| f ~ 4 i ",
"I o.A _.                    s.C Q.x.9.7.s       N A.w.h T.> 0 2 ",
"I u.Q /                     _ e.,.7 Z 4 B.d.      I.i (.6 n - a ",
"Q I E A.#.                W Z.b 5 j E.,.O.W.      ).A y 1 i a U ",
"+.+.I T r.    o       o     _ :._ B R.s.C.`.      >.b p 2 a a a ",
"Q Q +.      o o     o o       I =.                B 0 # & 2 & U ",
"a & i < #                                       *.r i I - a & a ",
"2 2 #           f.                                t k t X + # 2 ",
"2 # - C r w                                       ~ % C - @ 0 : ",
"2 < k : ~                                         0.t.f * 0 < - ",
"i - 0 ~   * N 0.                                  N %.> M 2 - i ",
"I i 0 t * M k n i.                                `.C g ~ @ < i ",
"I & O.~ g k v 0.x                               {.n.B >.$ < - a ",
"I Q i k ' 8 g.L               W O               ,.d.Q.u s a a U ",
"a I Q C & A V.)             k ; j W                X` ;.W 2 U U ",
"U I I a X.=.        W       ' #.,.        Z.        k u.2 a a a ",
"U U W A /         [ Q       k h D       A.R.[.        t < i 0 O.",
"U W w.=.M.      u.A W     J.n F.oX    2.>.B.@.4       >.4 E < I ",
"W o./ m.$.     .j.$.A     m K./ D     H.B ] -.m.4     t v + - i ",
"W o.x.z./ S.^.K.L.6.q.    M.x.3.}.P.l.D.m /.y.j ^ c.9 C n @ < % ",
"W O.w.$.D./ S.].v.~.K ,.6.<.4.XX3.| |.2.p.Y ,.#.%.^ k f * < < # ",
"I o.B.w.! K.].j.x.h.[ R U.~ ] G | OXc.{ ^ ` p X.C 0 %.> : 2 # 2 ",
"Q W o.1.C.^.D./ L.&.;.o.I V R.=.+X!.F 5.j Q X.E < [.C N i X & 2 ",
"Q W u.U / w.o..X1.0.I W W s.k e.B.$ v.t o.Q a E s.k 2 I . & # a ",
"Q Q I o.O.B '.w.C.W U Q W I s.B < I.s.>.Q Q Q I I U 2 & 2 U a U ",
"U Q Q I o.u.o.U Q U U U Q I a E ' O.U Q U U U U a a a a U U U U "
};
