/* XPM */
static char *result[] = {
/* columns rows colors chars-per-pixel */
"32 32 185 2 ",
"   c black",
".  c #B97A55",
"X  c #BE7F59",
"o  c #FFF200",
"O  c #C3855D",
"+  c #C48B61",
"@  c #C88A61",
"#  c #C69164",
"$  c #C99064",
"%  c #CE9166",
"&  c #CA9567",
"*  c #CD9468",
"=  c #CE9568",
"-  c #CE9A6B",
";  c #CF9F6D",
":  c #CF9E6E",
">  c #D39B6C",
",  c #D39B6D",
"<  c #D5996C",
"1  c #D29E6E",
"2  c #D39E6E",
"3  c #CEA16F",
"4  c #D1A370",
"5  c #D0A371",
"6  c #D3A370",
"7  c #D7A372",
"8  c #D3A773",
"9  c #D7A472",
"0  c #D6A573",
"q  c #D6A673",
"w  c #D7A773",
"e  c #D9A272",
"r  c #DAA273",
"t  c #DDA173",
"y  c #D8A472",
"u  c #D7AA76",
"i  c #DAAB76",
"p  c #DBAB76",
"a  c #DBAA77",
"s  c #DBAB77",
"d  c #DCA976",
"f  c #DCAA77",
"g  c #DAAC77",
"h  c #D7AE78",
"j  c #DBAA78",
"k  c #DDAA78",
"l  c #DAAD78",
"z  c #DAB17A",
"x  c #DBB17A",
"c  c #DAB17B",
"v  c #DDB17B",
"b  c #DFB07B",
"n  c #DEB17B",
"m  c #DFB17B",
"M  c #DEB27B",
"N  c #DEB17C",
"B  c #DDB27C",
"V  c #DDB37C",
"C  c #DBB47C",
"Z  c #DDB47C",
"A  c #DDB47D",
"S  c #DCB57D",
"D  c #DDB77E",
"F  c #DDB77F",
"G  c #DEB87E",
"H  c #E0A978",
"J  c #E5AA7A",
"K  c #E0B07B",
"L  c #E0B07C",
"P  c #E0B17C",
"I  c #E2B07C",
"U  c #E3B07C",
"Y  c #E7B17E",
"T  c #E0B77E",
"R  c #E1B67F",
"E  c #E0B77F",
"W  c #E2B67E",
"Q  c #E2B67F",
"!  c #E3B67F",
"~  c #E2B77F",
"^  c #E3B77F",
"/  c #E5B67F",
"(  c #E0B87F",
")  c #E1B87F",
"_  c #E0B97F",
"`  c #E0BA7F",
"'  c #DEB980",
"]  c #E3B680",
"[  c #E2B780",
"{  c #E4B680",
"}  c #E5B680",
"|  c #E9B781",
" . c #E9B782",
".. c #E0B880",
"X. c #E1B880",
"o. c #E0B980",
"O. c #E0BA80",
"+. c #E1BA80",
"@. c #E4BB82",
"#. c #E5BB82",
"$. c #E4BB83",
"%. c #E5BB83",
"&. c #E6BB83",
"*. c #E7BB83",
"=. c #E0BC81",
"-. c #E2BD81",
";. c #E0BC82",
":. c #E2BC82",
">. c #E3BC82",
",. c #E3BD82",
"<. c #E3BD83",
"1. c #E0BE83",
"2. c #E3BE83",
"3. c #E2BF83",
"4. c #E4BC81",
"5. c #E4BC82",
"6. c #E5BC82",
"7. c #E4BC83",
"8. c #E5BC83",
"9. c #E7BC83",
"0. c #E2BE84",
"q. c #E3BF84",
"w. c #EABC84",
"e. c #EBBC84",
"r. c #FFA3B1",
"t. c #E3C083",
"y. c #E3C085",
"u. c #E2C185",
"i. c #E3C285",
"p. c #E3C386",
"a. c #E5C185",
"s. c #E6C085",
"d. c #E6C185",
"f. c #E5C285",
"g. c #E6C086",
"h. c #E6C186",
"j. c #E5C286",
"k. c #E5C386",
"l. c #E4C486",
"z. c #E7C587",
"x. c #E9C085",
"c. c #E8C086",
"v. c #E9C086",
"b. c #EBC087",
"n. c #EBC187",
"m. c #ECC187",
"M. c #E5C588",
"N. c #E6C588",
"B. c #E7C588",
"V. c #E5C789",
"C. c #E6C689",
"Z. c #E6C789",
"A. c #E7C789",
"S. c #E8C588",
"D. c #E9C588",
"F. c #EAC489",
"G. c #EAC589",
"H. c #E8C688",
"J. c #EDC589",
"K. c #ECC48A",
"L. c #E6CA8A",
"P. c #E9C98A",
"I. c #E8C88B",
"U. c #E9C88B",
"Y. c #E8C98B",
"T. c #EAC98A",
"R. c #EBC88B",
"E. c #EBC98B",
"W. c #E9CB8B",
"Q. c #EEC88B",
"!. c #EEC98C",
"~. c #EECB8D",
"^. c #EACD8C",
"/. c #EACE8D",
"(. c #ECCC8C",
"). c #EECC8E",
"_. c #EFCC8E",
"`. c #ECCE8E",
"'. c #ECCF8E",
"]. c #EDCF8E",
"[. c #EAD08E",
"{. c #EDD190",
"}. c #EED190",
"|. c #ECD290",
" X c #EED592",
/* pixels */
"J J J Y e H d t t t J Y w.| w.R / d / t t J J J J | e I e H H t ",
"J t % d > 1 > e > J Y | I v d > l > m > Y | e./ 7 m v q 7 m % J ",
"H m d             U H y l R 1 R G.A &.7 I } N q R 1 e &.* / > H ",
"I d l                 Q g 1 A d l S 6 A f j [ ,.l 1 R O.h u 1 d ",
"I R v     d.0.        ] B i d c d.q ; v u } #.M p g.- R O.; E O ",
"| m 1 <.5.D l.a.      U 9 q v d.c : a.n V $.x.,.` 7 7.G ; i v * ",
"I &.~ n 0.V.z ~       P 9.d n q : i.  2.s k $.} d.E q.  u R 1 e ",
"H } M Q.'.I.W 1.      { I p w.m P.s.      K.E.(.v       H.; 7 < ",
"H 9.Y W d.&.L.(       F.H Y ~ 5.*.4                     3 l * t ",
"Y H I m.X.W.)       w.b.U U n.j 2 s                     , e t J ",
" . .H L 6.6.R       b.e.n.} ~ %.~ b J.                r < t t t ",
"Y Y  .f *.< {       n.m.| b.b H @.U     o       o     @ % < % J ",
"t % e > @ a b                 l f.      o o     o o       t % t ",
"< < @ e H 1 { T                                       q X O @ < ",
"< @ * m 0 8 z                                 r.          + 7 - ",
"< > d - R 1 +                                       7.u & 7 > * ",
"e * 7 R u & v                                         ; c < * e ",
"H e 7 q & c d                                   E !.m i R + > e ",
"H % | R i d h                                 &._.h.b &.# > * t ",
"H Y e d / 5 t.F                               { *.e.P.w y t t J ",
"t H Y m % M v.!               = s               U ].^ $.U < J J ",
"J H H t { @.}               / X.*.b             ~.J.d 9.< t t t ",
"J J U M W <.        Y         p V p       J.        > q > e 7 | ",
"J U 4.@.k.        M U K       B.}.k.      c...        &.1 I > H ",
"U } W j.o.      u.o.M f.z.    W V Z.x     ( #.j.      q h O * e ",
"U } s.a.W     C.Z.,.3.&.B.    ;.`.A.p.    R.8.s E     m l + > $ ",
"U | 4.o.N.W M./.f.Y.D *.,.=.:.{.;.' '.    K *.X.O.E d u & > > @ ",
"H } c.4.T C./.u.s.y.) P D.R ( Z ' |.d._ E ^ r { m 7 O.; - < @ < ",
"Y U } -.b.T.N.W Z.+.$.} H n J.@. XU.C >.s Y { I > ).m v e X % < ",
"Y U 9.J W 4.} [.-.2.H U U w.d 5.c.# f.q } Y t I w.d < H . % @ t ",
"Y Y H } | b ^.4.b.U J Y U H w.b > S.w.&.Y Y Y H H J < % < J t J ",
"J Y Y H } 9.} J Y J J J Y H t I / | J Y J J J J t t t t J J J J "
};
