/* XPM */
static char *result[] = {
/* columns rows colors chars-per-pixel */
"32 32 193 2 ",
"   c black",
".  c #B97A55",
"X  c #BE7F59",
"o  c #FFC20E",
"O  c #C3855D",
"+  c #C48B61",
"@  c #C88A61",
"#  c #C69164",
"$  c #C99064",
"%  c #CE9166",
"&  c #CA9567",
"*  c #CA9568",
"=  c #CD9468",
"-  c #CE9A6B",
";  c #CF9F6D",
":  c #D39B6C",
">  c #D39B6D",
",  c #D5996C",
"<  c #D6996D",
"1  c #D29D6E",
"2  c #D29E6E",
"3  c #CEA16F",
"4  c #D0A371",
"5  c #D3A370",
"6  c #D7A372",
"7  c #D7A373",
"8  c #D3A773",
"9  c #D7A472",
"0  c #D6A573",
"q  c #D6A673",
"w  c #D7A673",
"e  c #D7A773",
"r  c #D9A272",
"t  c #DAA273",
"y  c #DDA173",
"u  c #D8A472",
"i  c #D7AA75",
"p  c #D7AA76",
"a  c #DAAB76",
"s  c #DBAB76",
"d  c #DBAA77",
"f  c #DBAB77",
"g  c #DCA976",
"h  c #DCAA77",
"j  c #DBAC77",
"k  c #D7AD78",
"l  c #D7AE78",
"z  c #DBAA78",
"x  c #DDAA78",
"c  c #D9AD78",
"v  c #DAAD78",
"b  c #DBB07A",
"n  c #DAB17A",
"m  c #DAB17B",
"M  c #DDB17B",
"N  c #DFB07B",
"B  c #DEB17B",
"V  c #DFB17B",
"C  c #DDB27B",
"Z  c #DEB27B",
"A  c #DEB17C",
"S  c #DDB37C",
"D  c #DDB47C",
"F  c #DDB47D",
"G  c #DCB57D",
"H  c #DDB77E",
"J  c #DDB77F",
"K  c #DEB87E",
"L  c #E0A978",
"P  c #E5AA7A",
"I  c #E0B07B",
"U  c #E0B17B",
"Y  c #E0B07C",
"T  c #E0B17C",
"R  c #E2B07C",
"E  c #E3B07C",
"W  c #E7B17E",
"Q  c #E0B77E",
"!  c #E1B67F",
"~  c #E0B77F",
"^  c #E2B67E",
"/  c #E2B67F",
"(  c #E3B67F",
")  c #E2B77F",
"_  c #E3B77F",
"`  c #E5B67F",
"'  c #E0B87F",
"]  c #E1B87F",
"[  c #E0BA7F",
"{  c #DEB980",
"}  c #DFBA81",
"|  c #E2B780",
" . c #E4B680",
".. c #E5B680",
"X. c #E9B781",
"o. c #E9B782",
"O. c #E0B880",
"+. c #E1B880",
"@. c #E0B980",
"#. c #E0BA80",
"$. c #E1BA80",
"%. c #E0BA81",
"&. c #E3BB83",
"*. c #E4BB82",
"=. c #E5BB82",
"-. c #E4BB83",
";. c #E5BB83",
":. c #E6BB83",
">. c #E7BB83",
",. c #E2BD81",
"<. c #E0BC82",
"1. c #E3BD82",
"2. c #E3BC83",
"3. c #E3BD83",
"4. c #E3BE83",
"5. c #E2BF83",
"6. c #E4BC81",
"7. c #E4BC82",
"8. c #E5BC82",
"9. c #E4BC83",
"0. c #E5BC83",
"q. c #E7BC83",
"w. c #E4BE83",
"e. c #E2BE84",
"r. c #E3BF84",
"t. c #EABC84",
"y. c #EBBC84",
"u. c #FFA3B1",
"i. c #E3C083",
"p. c #E3C085",
"a. c #E2C185",
"s. c #E5C185",
"d. c #E6C085",
"f. c #E6C185",
"g. c #E5C285",
"h. c #E6C086",
"j. c #E6C186",
"k. c #E5C286",
"l. c #E5C386",
"z. c #E4C486",
"x. c #E7C587",
"c. c #E9C085",
"v. c #E8C086",
"b. c #E9C086",
"n. c #EBC087",
"m. c #EBC187",
"M. c #ECC187",
"N. c #E5C588",
"B. c #E6C588",
"V. c #E7C588",
"C. c #E6C688",
"Z. c #E6C689",
"A. c #E6C789",
"S. c #E7C789",
"D. c #E8C488",
"F. c #E8C588",
"G. c #E9C588",
"H. c #EAC489",
"J. c #EAC589",
"K. c #E8C688",
"L. c #EDC589",
"P. c #ECC48A",
"I. c #ECC58A",
"U. c #E6CA8A",
"Y. c #E9C98A",
"T. c #E9C88B",
"R. c #E8C98B",
"E. c #EAC98A",
"W. c #EBC88B",
"Q. c #EAC98B",
"!. c #EBC98B",
"~. c #E9CB8B",
"^. c #EDC88B",
"/. c #EEC88B",
"(. c #EDC88C",
"). c #EEC98C",
"_. c #EECB8D",
"`. c #EACD8C",
"'. c #EACE8D",
"]. c #ECCC8C",
"[. c #EECC8E",
"{. c #EFCC8E",
"}. c #ECCE8E",
"|. c #ECCF8E",
" X c #EDCF8E",
".X c #EAD08E",
"XX c #EDD18F",
"oX c #EDD190",
"OX c #EED190",
"+X c #EFD191",
"@X c #ECD290",
"#X c #EED592",
"$X c #F0D191",
/* pixels */
"P P P W r L g y y y P W t.X.t.! ` g ` y y P P P P X.r R r L L y ",
"P y % g : 2 : r : P W X.R M g : v : V : W X.y.` 6 V M q 6 V % P ",
"L V g q ! ` 2 q.: E L u       ! J.F :.6 R ..A q ! 2 r :.= ` : L ",
"R g v     v * i 1 / f             G 5 F h z | 1.v 2 ! #.l p 2 g ",
"R ! M     f.e.k B                   ; M p ..=.Z s h.- ! #.; ~ O ",
"X.V 2       z.s.        9 q M       s.B S -.c.1.[ 6 9.K ; a M = ",
"R :.) B               T q.g B       6.4.f x -...f.~ r.{ p ! 2 r ",
"L ..Z /.|.          (. .R s           2.u P.!.].M M.6.s K.; 6 , ",
"L q.W ^ f.:.U.' @.J.t.H.L               v.y.v.J.L.F.r Q.3 v = y ",
"W L R M.+.~.] +X!.t.t.n.                X.I.{.>.` ^.Z w > r y P ",
"o.o.L Y 8.8.! {.I.X.  y.                n.).  y.H.:.z t , y y y ",
"W W o.h >.,  .>. .).                          !.C N 6 @ % , % P ",
"y % r : @ d N 6 $Xm.                          7.&.0 r L = y % y ",
", , @ r L 2  .Q  .E z                         V S q g q X O @ , ",
", @ = V 0 8 n c g Z <                       ;.g : ! $ V = + 6 - ",
", : g - ! 2 + M - >.x 7       o       o   ;.:.g v 4.9.p & 6 : = ",
"r = 6 ! p & M 4.%./  .      o o     o o       v.g M #.; m , = r ",
"L r 6 q & m g v w.U   L                     `   ~ ).V a ! + : r ",
"L % X.! a g l 4.j   :.          u.          ` :.{.j.N :.# : = y ",
"L W r g ` 4 i.J I n.R   o.                t.   .>.y.Y.e u y y P ",
"y L W V % Z b.( Y.t.X.  y               W P X.M.E  X_ -.E , P P ",
"P L L y  .*...XX>.v.E W `               E m.X.L._.L.g q., y y y ",
"P P E Z ^ 3.C.3.N ] W X.R               M.L.[...6 ! : q : r 6 X.",
"P E 6.*.l.D.b.@.q.Z E I 4.    V.OXl.    :.v.O.2 ! #.9.:.2 R : L ",
"E ..^ k.@.N k.} a.@.Z g.x.    ^ S A.    N ' =.k.2 v f.q l O = r ",
"E ..d.s.^ N.E.Z.A.1.5.:.V.    <.}.S.    b W.0.f ~ f.5 V v + : $ ",
"E X.6.@.B.^ N.'.g.R.H >.1.    oX<.{     e.I >.+.#.~ g p & : : @ ",
"L ..v.6.Q Z.'.a.d.p.] T G.    D { @X    ~ _ t  .V 6 #.; - , @ , ",
"W E ..,.n.E.B.^ A.$.-...L     *.#XT.    f W  .R : [.V M r X % , ",
"W E q.P ^ 6....X,.4.L E E t.g 7.v.#     ..W y R t.g , L . % @ y ",
"W W L ..X.N `.6.n.E P W E L t.N : F.t.:.W W W L L P , % , P y P ",
"P W W L ..q...P W P P P W L y R ` X.P W P P P P y y y y P P P P "
};
