/* XPM */
static char *result[] = {
/* columns rows colors chars-per-pixel */
"32 32 192 2 ",
"   c black",
".  c #B97A55",
"X  c #BE7F59",
"o  c #C3855D",
"O  c #C48B61",
"+  c #C88A61",
"@  c #C69164",
"#  c #C99064",
"$  c #CE9166",
"%  c #CA9567",
"&  c #CA9568",
"*  c #CD9468",
"=  c #CE9A6B",
"-  c #CF9F6D",
";  c #D39B6C",
":  c #D39B6D",
">  c #D5996C",
",  c #D6996D",
"<  c #D29D6E",
"1  c #D29E6E",
"2  c #CEA16F",
"3  c #D0A371",
"4  c #D3A370",
"5  c #D7A372",
"6  c #D7A373",
"7  c #D3A773",
"8  c #D6A573",
"9  c #D6A673",
"0  c #D7A773",
"q  c #D9A272",
"w  c #DAA273",
"e  c #DDA173",
"r  c #D8A472",
"t  c #D7AA75",
"y  c #D7AA76",
"u  c #DAAB76",
"i  c #DBAB76",
"p  c #DBAA77",
"a  c #DBAB77",
"s  c #DCA976",
"d  c #DCAA77",
"f  c #DBAC77",
"g  c #D7AD78",
"h  c #D7AE78",
"j  c #DBAA78",
"k  c #DDAA78",
"l  c #D9AD78",
"z  c #DAAD78",
"x  c #DBB07A",
"c  c #DAB17A",
"v  c #DAB17B",
"b  c #DDB17B",
"n  c #DFB07B",
"m  c #DEB17B",
"M  c #DFB17B",
"N  c #DDB27B",
"B  c #DEB27B",
"V  c #DEB17C",
"C  c #DDB37C",
"Z  c #DBB47C",
"A  c #DDB47C",
"S  c #DDB47D",
"D  c #DCB57D",
"F  c #DDB77E",
"G  c #DDB77F",
"H  c #DEB87E",
"J  c #E0A978",
"K  c #E5AA7A",
"L  c #E0B07B",
"P  c #E0B17B",
"I  c #E0B07C",
"U  c #E0B17C",
"Y  c #E2B07C",
"T  c #E3B07C",
"R  c #E7B17E",
"E  c #E0B77E",
"W  c #E1B67F",
"Q  c #E0B77F",
"!  c #E1B77F",
"~  c #E2B67E",
"^  c #E2B67F",
"/  c #E3B67F",
"(  c #E2B77F",
")  c #E3B77F",
"_  c #E5B67F",
"`  c #E0B87F",
"'  c #E1B87F",
"]  c #E0B97F",
"[  c #DEB980",
"{  c #DFBA81",
"}  c #E2B780",
"|  c #E4B680",
" . c #E5B680",
".. c #E9B781",
"X. c #E9B782",
"o. c #E0B880",
"O. c #E1B880",
"+. c #E0B980",
"@. c #E0BA80",
"#. c #E1BA80",
"$. c #E0BA81",
"%. c #E3BB83",
"&. c #E4BB82",
"*. c #E5BB82",
"=. c #E4BB83",
"-. c #E6BB83",
";. c #E7BB83",
":. c #E2BD81",
">. c #E3BD81",
",. c #E0BC82",
"<. c #E2BC82",
"1. c #E3BC82",
"2. c #E3BD82",
"3. c #E3BD83",
"4. c #E0BE83",
"5. c #E3BE83",
"6. c #E2BF83",
"7. c #E4BC81",
"8. c #E4BC82",
"9. c #E5BC82",
"0. c #E4BC83",
"q. c #E5BC83",
"w. c #E7BC83",
"e. c #E4BE83",
"r. c #E2BE84",
"t. c #EABC84",
"y. c #EBBC84",
"u. c #E3C083",
"i. c #E3C085",
"p. c #E2C185",
"a. c #E5C185",
"s. c #E6C085",
"d. c #E6C185",
"f. c #E5C285",
"g. c #E6C086",
"h. c #E6C186",
"j. c #E5C286",
"k. c #E5C386",
"l. c #E4C486",
"z. c #E9C085",
"x. c #E8C086",
"c. c #E9C086",
"v. c #EBC087",
"b. c #EBC187",
"n. c #ECC187",
"m. c #E5C588",
"M. c #E6C588",
"N. c #E7C588",
"B. c #E5C789",
"V. c #E6C688",
"C. c #E7C688",
"Z. c #E6C788",
"A. c #E6C689",
"S. c #E6C789",
"D. c #E8C488",
"F. c #E8C588",
"G. c #E9C588",
"H. c #EAC489",
"J. c #EAC589",
"K. c #E8C688",
"L. c #EDC589",
"P. c #ECC48A",
"I. c #ECC58A",
"U. c #E6CA8A",
"Y. c #E9C98A",
"T. c #E8C88B",
"R. c #E9C88B",
"E. c #E8C98B",
"W. c #EAC98A",
"Q. c #EBC88B",
"!. c #EBC98B",
"~. c #E9CB8B",
"^. c #EDC88B",
"/. c #EEC88B",
"(. c #EEC98C",
"). c #EECB8D",
"_. c #EACD8C",
"`. c #EACE8D",
"'. c #ECCC8C",
"]. c #ECCC8D",
"[. c #EECC8E",
"{. c #EFCC8E",
"}. c #ECCE8E",
"|. c #ECCF8E",
" X c #EDCF8E",
".X c #EAD08E",
"XX c #EDD18F",
"oX c #EDD190",
"OX c #EED190",
"+X c #EFD191",
"@X c #EED592",
"#X c #F0D191",
/* pixels */
"K K K R q J s e e e K R t...t.W _ s _ e e K K K K ..q Y q J J e ",
"K e $ s ; 1 ; q ; K R ..Y b s ; z ; M ; R ..y._ 5 M b 9 5 M $ K ",
"J M s 9 W _ 1 w.; T     z W 1 W J.S -.     .V 9 W 1 q -.* _ ; J ",
"Y s z 1 q z & t < ^ a       S s z D       j } 2.z 1 W @.h y 1 s ",
"Y W b s y d.r.g m y T                      .*.B i g.= W @.- Q o ",
"..M 1 3.8.F l.a.E.9 q.                  C =.z.      0.H - u b * ",
"Y -.( m r.B.c ( V.6 q.U               5.a k =.        [ y W 1 q ",
"J  .B /.|.T.~ 4.C.3.                      P.!.'.      i K.- 5 > ",
"J w.R ~ d.-.U.` +.  t.H.              1 x.  x.J.L.      2 z * e ",
"R J Y n.O.~.' +X!.t.t.                  ..I.{.;._ ^.    : q e K ",
"X.X.J I 9.9.W {.I...  y.b.          L.t.  (.I.y.H.-.    > e e e ",
"R R X.d ;.> | ;.| (.b.n.              J y.L.n.!.N n     $ > $ K ",
"e $ q ; + p n 5 #Xb.P. .              n.n.X.].8.%.      * e $ e ",
"> > + q J 1 | E | T j 1               x.| f.! M         X o + > ",
"> + * M 8 7 c l s B ,                                   * O 5 = ",
"> ; s = W 1 O b = ;.k                               0.y % 5 ; * ",
"q * 5 W y % b 5.$.^ |                           s b @.- v > * q ",
"J q 5 9 % v s z e.P h.J                   -._ Y Q (.M u W O ; q ",
"J $ ..W u s h 5.f t.-.T               q R .._ -.{.h.n -.@ ; * e ",
"J R q s _ 3 u.G L v.Y J               J R t.K | ;.y.Y.0 r e e K ",
"e J R M $ B c./ Y.t...e     s         X.R K ..n.T  X) =.T > K K ",
"K J J e | &. .XX;.x.T R     _ O.;.    e T b...L.).L.s w.> e e e ",
"K K T B ~ 3.V.3.n ' R ..    s i C     p n.L.[. .5 W ; 9 ; q 5 ..",
"K T 7.&.k.D.c.+.w.B T L     z N.OX    >.-.x.o.1 W @.0.-.1 Y ; J ",
"T  .~ j.+.n j.{ p.+.B f.    A.~ C     Z.n ` *.j.1 z d.9 h o * q ",
"T  .s.a.~ m.W.A.S.2.6.-.    s.,.}.    M.x Q.q.a Q d.4 M z O ; # ",
"T ..7.+.M.~ m.`.f.E.F ;.    <.oX,.    >.r.L ;.O.@.Q s y % ; ; + ",
"J  .x.7.E A.`.p.s.i.' U G.W ` A [     ] Q ) w | M 5 @.- = > + > ",
"R T  .:.v.W.M.~ S.#.=. .J m L.&.@XR.Z 1.a R | Y ; [.M b q X $ > ",
"R T w.K ~ 7. ..X:.5.J T T t.s 8.x.@ f.9  .R e Y t.s > J . $ + e ",
"R R J  ...n _.7.v.T K R T J t.n ; F.t.-.R R R J J K > $ > K e K ",
"K R R J  .w. .K R K K K R J e Y _ ..K R K K K K e e e e K K K K "
};
