/* XPM */
static char *result[] = {
/* columns rows colors chars-per-pixel */
"32 32 78 1 ",
"  c black",
". c #663724",
"X c #653A25",
"o c #6C3B26",
"O c #673928",
"+ c #6C3D29",
"@ c #723F2A",
"# c #6F4027",
"$ c #6E412A",
"% c #73422C",
"& c #7B462D",
"* c #7F4A2F",
"= c #764630",
"- c #7A4730",
"; c #7D4A31",
": c #83472F",
"> c #864C31",
", c #8A4D32",
"< c #845135",
"1 c #8B5235",
"2 c #8F563B",
"3 c #925437",
"4 c #945539",
"5 c #99573A",
"6 c #925838",
"7 c #9C5A3C",
"8 c #9F5E40",
"9 c #A15F40",
"0 c #A46343",
"q c #A86645",
"w c #A86845",
"e c #AC6B4A",
"r c #B06F4B",
"t c #B1714E",
"y c #B47450",
"u c #BA7955",
"i c #B37F59",
"p c #BE7F59",
"a c #FFC20E",
"s c #BD835C",
"d c #BC885E",
"f c #C3855D",
"g c #C08B5F",
"h c #C48C62",
"j c #C88A61",
"k c #C69164",
"l c #CD9266",
"z c #C69368",
"x c #CD9568",
"c c #CF9B6B",
"v c #D39B6D",
"b c #D79E71",
"n c #CEA16F",
"m c #D6A472",
"M c #DBA173",
"N c #D7AA76",
"B c #DBAA76",
"V c #D7AE78",
"C c #DAAD78",
"Z c #DEB27B",
"A c #DEB87E",
"S c #E1A777",
"D c #E4AA79",
"F c #E3B37E",
"G c #E0B97F",
"H c #DFBA81",
"J c #E5B680",
"K c #E9B781",
"L c #E4BC82",
"P c #EABC84",
"I c #E5C185",
"U c #EAC086",
"Y c #E6C688",
"T c #E8C588",
"R c #E6CA8A",
"E c #EACB8C",
"W c #EAD08E",
"Q c #EDD491",
/* pixels */
"DDDFMDBvMvDFKKPJGBFbbDDDDKMFmSDM",
"DMlBvvvMvDJKJDNvCvDbFPPKMFZNmClD",
"DDBNGFvLvCBmCHvJTALmFFFmGvmLxGvS",
"FBVvMVxVbJBJCvZCCZ,FBBGGBvGJVBvB",
"FJZBNILVZNFHZBBC,DDD,FPZBIcGJnAf",
"KZvLLAYIEmPDMNpDD70eD9ULHmJAnBZl",
"FJFZLYZAYmLFpDD90etq0D9KIGIANGvM",
"BJZEWEGHYLeDD0rDDDDDDDDDFULBYcmv",
"DLFFIPRJeDD0eDD        0DTMEnClM",
"FDFUHEADD7qetD    a  yy07DFmvMMD",
"KKDDL,D500etD  a aa@%uq097SbvMMM",
"KFKVPD779ertD aa  ftueq077v,lblD",
"blMvj,MD7rtD    pyrpy0075diSlMlM",
"vvjbD,1vD0D   tpyrtr087ci*;mpfjv",
"vjlDm,>,sDD 7quuqe098bxx&%%Zljbv",
"vvSvG,->>d@0qer0w70xm76&#@%Bxbbl",
"MxMGB,@%<:g5q0885bv>31*&o#$nZvlM",
"BMmmx,+>;;;x797zh1**><&+#$&BAgvM",
"SlKGN,%%%%>,vxi:*%@%$%$$++&LhvlM",
"SFmBF,*%+%+,>,*&oooo++$+++;mMSMD",
"MSFFzk;@$++%$,-=oXX.Xoo+$%<LFbDD",
"DDDbJJ*&$$+XX>.%+oXXX+$%;<3PvbMM",
"DDDAJLY>;%&X+%$X%;+++%>2,2xmvMbK",
"FDLLTYPH<,oXX6$X$*;%&<85GALLbDvD",
"DKGIACIJI4OO$=+$$%,2435YvVImVfxM",
"FKIIGYERRL,>O,,+=+$34ILDGImZCgvk",
"DPJJYGYEIRA,,>>>,>5LLZFGJGBCxvvf",
"BKILAYWILIAD7,,>>QYJAJSFZmGcvbfb",
"FDLLPEIFTJLGB,>LQRZLDFFFvEDDbslv",
"FFPDGLLWPPDFDPBLIkImFFSDPSvDulfM",
"FFDFFFELPFDFFDPFvTPLFFFSDDvlvDSD",
"DFFSKLKDFDDDFBbFKKDFDDDDMSMMDDDD"
};
