/* XPM */
static char *_cde1b62c1dd4c07f92ffc82580e916cgyLnyxtFA38Yori5[] = {
/* columns rows colors chars-per-pixel */
"32 32 98 2 ",
"   c #573322",
".  c #5D3625",
"X  c #5C3827",
"o  c #5E3E2A",
"O  c #633927",
"+  c #653C29",
"@  c #6B3E2A",
"#  c #6D412C",
"$  c #73442E",
"%  c #78462F",
"&  c #7B482F",
"*  c #6E4630",
"=  c #744731",
"-  c #7A4730",
";  c #764932",
":  c #7B4B34",
">  c #7F5037",
",  c #7E5138",
"<  c #824E35",
"1  c #8A4E35",
"2  c #845136",
"3  c #8B5236",
"4  c #845339",
"5  c #8B553A",
"6  c #8D593D",
"7  c #915437",
"8  c #935639",
"9  c #945A3D",
"0  c #9B5B3D",
"q  c #A05F3F",
"w  c #825E41",
"e  c #8B5C41",
"r  c #955D40",
"t  c #9A5E41",
"y  c #876145",
"u  c #966143",
"i  c #9C6243",
"p  c #906449",
"a  c #9E6748",
"s  c #946A4B",
"d  c #9B6D4D",
"f  c #9A704F",
"g  c #9E7251",
"h  c #A26343",
"j  c #A46443",
"k  c #A36545",
"l  c #A66746",
"z  c #A86646",
"x  c #A86947",
"c  c #A26649",
"v  c #A4694A",
"b  c #AA6A48",
"n  c #AD6B4A",
"m  c #AD6C4A",
"M  c #AA6C4C",
"N  c #A3704F",
"B  c #B3724F",
"V  c #A17652",
"C  c #A47654",
"Z  c #A87754",
"A  c #A67857",
"S  c #A97A56",
"D  c #AA7C57",
"F  c #A67858",
"G  c #AA7C58",
"H  c #AC7C59",
"J  c #AE7E5A",
"K  c #B17F5B",
"L  c #B1815B",
"P  c #B3825D",
"I  c #B5845F",
"U  c #BA865F",
"Y  c #B8885F",
"T  c #BA8660",
"R  c #BA8A63",
"E  c #BD8B63",
"W  c #BD8A64",
"Q  c #BF8D65",
"!  c #C08D65",
"~  c #C18D65",
"^  c #C48F67",
"/  c #C79167",
"(  c #CB9167",
")  c #C79469",
"_  c #C9936A",
"`  c #C9946A",
"'  c #CB946A",
"]  c #CB946C",
"[  c #CC976C",
"{  c #CE996D",
"}  c #D3996E",
"|  c #D79F72",
" . c #DAA173",
".. c #DBA273",
"X. c #DBA274",
"o. c #DDA374",
"O. c #E3A979",
"+. c #E5AA7A",
/* pixels */
"@ 4 ; $ @ 4 4 : : : u 6 @ 5 @ $ @ 5 $ ; 6 > # + < : # @ 4 $ $ < ",
"@ < > ; @ $ e ; # 5 : ; 4 5 @ < $ # ; : : 5 4 < ; 5 5 $ $ , 4 + ",
"; $ | X.X.{ +.+.| X.! O.Q  .! +.+.| ` X.[ I T +.! ` | | { { # @ ",
": 4 ! 1 z t 5 b z l k i 5 i 9 8 8 < 5 5 3 5 : i 5 9 3 t 5 { + O ",
"@ 4 _ 9 9 ; G h t 0 5 6 k 8 z ! # $ - $ : E # i 9 4 s 5 r V @ O ",
"@ 2 | 8 n ; | 4 1 b 8 r i u 9 9 { 2 3 t : G = : < : { # 1 ! * + ",
"$ = | 3 8 6 E n v 6 ; e , # h 3 L # % r 2 D : u i < ` : 3 ! $ 4 ",
"< : +.9 0 $ Q : 4 ` ` | X.X.6 h ! : < $ h J 6 : q i E ; 3 +.+ $ ",
"5 : X.9 i < ^ < 4 ` : 4 + +._ r | # m r : : E + < i _ 5 5 | ; = ",
"$ $ R 3 0 $ ` b $ L 5 a ; $ ` 5 j | + 9 ; u W : t i | @ 5 ` O = ",
": $ +.i 8 ` 0 : $ D 6 | $ 5 ` 0 5 E + 3 3 5 _ = l u W $ 5 | @ @ ",
"; ; +.z $ | 3 3 : ` # +.@ | { t h | @ 0 0 3 _ 6 @ z | 4 z ] O $ ",
"; # +.1 6 [ < 5 $ +.6 +.| +.9 8 k Y 4 t 9 k  .` = 5 E ` l +.6 5 ",
"O : I 3 @ ! 3 i : J 4 k 9 8 $ $ 1 f o $ L i M +.4 : : ! % g # 2 ",
"; + ` 5 $ ` 5 2 ; L T 9 9 5 < 1 2 J : 2 s : k L : 3 : 5 $ y # O ",
"= : ! 2 ; _ : 2 8 2 T ; 5 k ; 3 < G ; : w + : ) # = 5 2 : _ @ + ",
"# # R < O D 9 F + r 5 : 3 < < g @ $ # 4 J ; 6 { m 8 9 % 3 C + + ",
": O I 5 @ / $ ` = 6 $ t : 9 : ] + : 1 $ e # 4 g ! 0 i 5 - s . O ",
"; : T 5 + E : | : + i $ 5 = L +.; @ 1   w o # ; E : t 8 @ S @ $ ",
"= + J @ = L 3 4 | t c 2 3 9 | : + : + O p : : 5 d   5 $ 4 A O X ",
"$ @ W < ! 2 j + ` h 5 1 0 ` ` @ h 3 4 [ ` - i 4 T + 8 1 1 C X O ",
"4 @ ` 8 ` 7 4 : } 6 i 9 : G : $ 7 8 ; U 9 9 t 3 } ; 9 8 i ` $ < ",
"$ ;  .@ ! 2 h : o.x b $ ! | $ 3 l 9 $ T 0 k i 3 | : r 0 0 } : @ ",
"; : ` $ +.9 9 : | 0 0 3 i 4 : 2 0 : } +.i i 5 t U T 5 j 8  .$ # ",
"; % ! $ O.3 < # r ^ 4 i m 5 5 j 8 @ | 3 9 h 9 5 M T @ < 5 } O @ ",
"= ; I 9 J 3 3 3 ; ( h 3 u 5 h 5 4 d _ 8 9 2 6 t r } $ t 4 _ : = ",
"4 4 d x 0 : $ i # d 6 9 4 r l ; : S 3 : a B u 0 M } . 9 3 I ; ; ",
"$ : J 5 < 6 2 ; r ; 4 a 2 t 9 t | K k 9 6 0 6 i 4 ` T $ 3 P + # ",
"@ @ d 5 8 - : t & 4 r 2 1 2 9 5 ! + ; 9 6 % 5 c 7 : r b 3 L , < ",
": $ ! ! } _ [ ` T [ Z N d T _ J g ! T J _ [ T G o.U E ^ ! ` O $ ",
"# = 4 @ = < $ $ @ $ # e $ 5 4 5 @ = < @ . @ : + ; 2 4 $ : : O O ",
"@ ; = ; = 4 @ ; @ $ : ; < $ 4 < 4 < $ @ + @ # ; $ ; : = = ; O = "
};
